<svg xmlns="http://www.w3.org/2000/svg" xmlns:xlink="http://www.w3.org/1999/xlink" aria-hidden="true" role="img" class="iconify iconify--logos" width="31.88" height="32" preserveAspectRatio="xMidYMid meet" viewBox="2 0 386 357"> 
 
<path d="M0 0 C0.75575317 0.00149048 1.51150635 0.00298096 2.29016113 0.0045166 C20.31016184 0.06803741 37.55471615 1.95522587 54.8125 7.3125 C55.79734375 7.60898437 56.7821875 7.90546875 57.796875 8.2109375 C63.85316022 10.1260331 69.74322618 12.42362423 75.625 14.8125 C76.33060059 15.09714111 77.03620117 15.38178223 77.76318359 15.67504883 C82.34719096 17.57215927 86.54641021 19.77888329 90.8125 22.3125 C91.75996094 22.85132812 92.70742187 23.39015625 93.68359375 23.9453125 C94.53050781 24.43773438 95.37742187 24.93015625 96.25 25.4375 C97.11496094 25.93507813 97.97992188 26.43265625 98.87109375 26.9453125 C99.51175781 27.39648438 100.15242188 27.84765625 100.8125 28.3125 C100.8125 28.9725 100.8125 29.6325 100.8125 30.3125 C101.34359375 30.38597656 101.8746875 30.45945312 102.421875 30.53515625 C105.76721004 31.62293676 108.30155947 33.63966388 111.0625 35.75 C111.61679687 36.15798828 112.17109375 36.56597656 112.7421875 36.98632812 C114.14060909 38.04203309 115.48200652 39.17237587 116.8125 40.3125 C116.8125 40.9725 116.8125 41.6325 116.8125 42.3125 C117.8025 42.6425 118.7925 42.9725 119.8125 43.3125 C121.50012851 44.9579378 123.1665349 46.62538577 124.8125 48.3125 C125.8025 48.9725 126.7925 49.6325 127.8125 50.3125 C128.1425 51.3025 128.4725 52.2925 128.8125 53.3125 C129.9557655 54.4557655 131.10256136 55.59578465 132.26953125 56.71484375 C140.8125 65.56060127 140.8125 65.56060127 140.8125 69.3125 C141.4725 69.3125 142.1325 69.3125 142.8125 69.3125 C146.35859708 73.81826692 148.66584849 79.03531504 150.8125 84.3125 C151.62420632 86.02121059 152.43678717 87.72950588 153.25 89.4375 C165.81801745 117.18556262 165.37648759 152.83328376 155.3359375 181.44921875 C151.87766044 190.57822556 147.35686124 199.28614185 141.8125 207.3125 C142.46839738 209.29514795 142.46839738 209.29514795 143.8125 211.3125 C145.46241582 212.01960678 147.1332762 212.67812656 148.8125 213.3125 C151.26392353 214.82302446 153.66892261 216.38513358 155.8125 218.3125 C155.8125 218.9725 155.8125 219.6325 155.8125 220.3125 C156.451875 220.43625 157.09125 220.56 157.75 220.6875 C158.430625 220.89375 159.11125 221.1 159.8125 221.3125 C160.1425 221.9725 160.4725 222.6325 160.8125 223.3125 C161.8025 223.6425 162.7925 223.9725 163.8125 224.3125 C163.8125 224.9725 163.8125 225.6325 163.8125 226.3125 C164.38484375 226.580625 164.9571875 226.84875 165.546875 227.125 C167.89134634 228.35382636 169.93654938 229.73772176 172.0625 231.3125 C173.12210937 232.0859375 173.12210937 232.0859375 174.203125 232.875 C174.73421875 233.349375 175.2653125 233.82375 175.8125 234.3125 C175.8125 234.9725 175.8125 235.6325 175.8125 236.3125 C176.369375 236.374375 176.92625 236.43625 177.5 236.5 C180.09980893 237.41344638 181.32895442 238.71846186 183.17578125 240.7109375 C186.1382224 243.60974627 189.51024938 246.03063566 192.80078125 248.54296875 C193.79658203 249.41888672 193.79658203 249.41888672 194.8125 250.3125 C194.8125 250.9725 194.8125 251.6325 194.8125 252.3125 C196.1325 252.9725 197.4525 253.6325 198.8125 254.3125 C198.8125 254.9725 198.8125 255.6325 198.8125 256.3125 C199.39 256.395 199.9675 256.4775 200.5625 256.5625 C203.49044601 257.538482 204.86494537 258.94761223 206.8125 261.3125 C206.8125 262.3025 206.8125 263.2925 206.8125 264.3125 C207.43125 264.56 208.05 264.8075 208.6875 265.0625 C211.20775827 266.54500486 211.82481659 267.59637064 212.8125 270.3125 C212.8125 271.3025 212.8125 272.2925 212.8125 273.3125 C205.30779001 273.04799054 199.65994588 271.32918879 193 267.9375 C191.77120117 267.33808594 191.77120117 267.33808594 190.51757812 266.7265625 C184.65262737 263.83920213 179.1683646 260.55847179 173.6875 257 C169.05041997 254.033266 164.3112837 251.3832923 159.45703125 248.79296875 C156.09975434 246.91348877 152.94242589 244.80471015 149.78515625 242.609375 C147.85233519 241.33868868 145.90061581 240.30283681 143.8125 239.3125 C143.8125 238.6525 143.8125 237.9925 143.8125 237.3125 C143.10222656 237.05855469 142.39195312 236.80460938 141.66015625 236.54296875 C137.56208181 234.77219584 134.09445456 232.2094422 130.43359375 229.67578125 C127.99061467 228.12930757 127.99061467 228.12930757 125.69140625 228.3984375 C123.42255321 229.50220385 122.0418683 230.78951138 120.3125 232.625 C119.70664062 233.25535156 119.10078125 233.88570312 118.4765625 234.53515625 C117.65285156 235.41494141 117.65285156 235.41494141 116.8125 236.3125 C113.97776123 239.31398811 111.38464189 241.24859579 107.8125 243.3125 C105.46607067 244.89715453 103.13042958 246.49624948 100.80078125 248.10546875 C98.8125 249.3125 98.8125 249.3125 96.8125 249.3125 C96.8125 249.9725 96.8125 250.6325 96.8125 251.3125 C88.27517799 255.95560495 79.75918593 260.4939607 70.8125 264.3125 C70.00683594 264.65925781 69.20117188 265.00601562 68.37109375 265.36328125 C49.75982899 273.10054862 29.93405796 276.97190071 9.8125 277.3125 C8.9875 277.32764648 8.1625 277.34279297 7.3125 277.35839844 C-23.68225365 277.83116068 -23.68225365 277.83116068 -38.28515625 274.05859375 C-40.87468836 273.39291322 -43.42971873 272.8914278 -46.0625 272.4375 C-60.41656087 269.60842823 -75.61911131 263.72726202 -88.1875 256.3125 C-89.68566083 255.47586473 -91.18538978 254.64202355 -92.6875 253.8125 C-93.4403125 253.39355469 -94.193125 252.97460938 -94.96875 252.54296875 C-96.40280997 251.7476714 -97.84011642 250.95818773 -99.28125 250.17578125 C-104.0778819 247.53173621 -104.0778819 247.53173621 -105.1875 245.3125 C-106.1775 244.9825 -107.1675 244.6525 -108.1875 244.3125 C-108.1875 243.6525 -108.1875 242.9925 -108.1875 242.3125 C-108.868125 242.10625 -109.54875 241.9 -110.25 241.6875 C-114.10389375 239.88354973 -117.26537764 237.4114655 -120.1875 234.3125 C-120.1875 233.6525 -120.1875 232.9925 -120.1875 232.3125 C-121.5075 231.6525 -122.8275 230.9925 -124.1875 230.3125 C-124.1875 229.6525 -124.1875 228.9925 -124.1875 228.3125 C-125.5075 227.6525 -126.8275 226.9925 -128.1875 226.3125 C-128.1875 225.6525 -128.1875 224.9925 -128.1875 224.3125 C-129.1775 223.9825 -130.1675 223.6525 -131.1875 223.3125 C-131.1875 222.3225 -131.1875 221.3325 -131.1875 220.3125 C-131.74953125 220.10882813 -132.3115625 219.90515625 -132.890625 219.6953125 C-136.04840362 217.79420088 -137.86139358 215.15556926 -139.9375 212.1875 C-140.37288086 211.56858887 -140.80826172 210.94967773 -141.25683594 210.31201172 C-155.09589335 190.09930515 -161.56403343 168.61331528 -161.50317383 144.27172852 C-161.50002701 141.6475209 -161.52349501 139.02445862 -161.54882812 136.40039062 C-161.64108184 111.80398552 -154.51311817 90.44213116 -142.1875 69.3125 C-141.5275 69.3125 -140.8675 69.3125 -140.1875 69.3125 C-139.94 68.59707031 -139.6925 67.88164063 -139.4375 67.14453125 C-138.04886405 63.99840294 -136.34286054 61.67439037 -134.1875 59 C-133.48625 58.11699219 -132.785 57.23398438 -132.0625 56.32421875 C-131.44375 55.66035156 -130.825 54.99648437 -130.1875 54.3125 C-129.5275 54.3125 -128.8675 54.3125 -128.1875 54.3125 C-128.0946875 53.44625 -128.0946875 53.44625 -128 52.5625 C-126.85365826 49.38801517 -124.92793158 48.18401425 -122.1875 46.3125 C-121.5275 46.3125 -120.8675 46.3125 -120.1875 46.3125 C-119.5275 44.9925 -118.8675 43.6725 -118.1875 42.3125 C-117.5275 42.3125 -116.8675 42.3125 -116.1875 42.3125 C-115.8575 41.3225 -115.5275 40.3325 -115.1875 39.3125 C-112.82421875 37.3046875 -112.82421875 37.3046875 -109.875 35.1875 C-108.90949219 34.48367187 -107.94398437 33.77984375 -106.94921875 33.0546875 C-104.5586241 31.54661789 -102.93955355 30.74393832 -100.1875 30.3125 C-100.1875 29.6525 -100.1875 28.9925 -100.1875 28.3125 C-88.76154043 19.68809782 -74.29754724 14.02810842 -60.83203125 9.5390625 C-58.70067668 8.82175775 -56.58081135 8.0638282 -54.5 7.2109375 C-52.12000726 6.28627816 -49.88468195 5.76659431 -47.375 5.3125 C-44.37230885 4.76388433 -41.46423536 4.12258904 -38.50830078 3.34643555 C-34.46017936 2.33107484 -30.4063863 1.6796204 -26.26171875 1.20703125 C-25.53071457 1.12314651 -24.79971039 1.03926178 -24.04655457 0.95283508 C-16.03293857 0.09874126 -8.05245861 -0.03971565 0 0 Z " fill="#C48D55" transform="translate(161.1875,49.6875)"/>
<path d="M0 0 C4.56647432 0.5472928 7.8497681 2.53489424 11.625 5 C16.10082871 7.90683659 16.10082871 7.90683659 21 10 C21 10.66 21 11.32 21 12 C22.175625 12.2784375 22.175625 12.2784375 23.375 12.5625 C27.69227355 14.27452227 31.01084215 16.69311071 34.73046875 19.44140625 C36.99914531 21.15325952 36.99914531 21.15325952 40 22 C40 22.66 40 23.32 40 24 C40.680625 24.2475 41.36125 24.495 42.0625 24.75 C45.56865083 26.24197908 48.71620368 28.06835511 52 30 C52 30.66 52 31.32 52 32 C52.680625 32.2475 53.36125 32.495 54.0625 32.75 C57.56865083 34.24197908 60.71620368 36.06835511 64 38 C64 38.66 64 39.32 64 40 C64.763125 40.28875 65.52625 40.5775 66.3125 40.875 C69 42 69 42 72 44 C72 44.66 72 45.32 72 46 C72.5775 46.10441406 73.155 46.20882812 73.75 46.31640625 C76.34854617 47.1058951 77.8843712 48.24747621 80 49.9375 C82.57402971 51.98365252 85.0108422 53.61884896 88 55 C88 55.66 88 56.32 88 57 C88.70125 57.2475 89.4025 57.495 90.125 57.75 C93.39514548 59.17180238 96.141122 60.87246288 99 63 C99 63.66 99 64.32 99 65 C99.763125 65.28875 100.52625 65.5775 101.3125 65.875 C104 67 104 67 107 69 C107.99 69 108.98 69 110 69 C110.33 68.01 110.66 67.02 111 66 C111.99722609 64.99723376 112.99754602 63.99753999 114 63 C114.87909684 61.56878747 115.7106333 60.10759258 116.5 58.625 C117.74346836 56.30545325 118.95898331 54.06068682 120.43359375 51.87890625 C122.77729669 47.57140235 124.09164546 42.97811387 125.5625 38.3125 C126.16237463 36.41098657 126.76759328 34.5111483 127.37890625 32.61328125 C127.6426001 31.77579346 127.90629395 30.93830566 128.17797852 30.07543945 C129 28 129 28 131 26 C129.25012192 42.65147146 122.47314279 58.28609619 113 72 C113.65589738 73.98264795 113.65589738 73.98264795 115 76 C116.64991582 76.70710678 118.3207762 77.36562656 120 78 C122.45142353 79.51052446 124.85642261 81.07263358 127 83 C127 83.66 127 84.32 127 85 C127.639375 85.12375 128.27875 85.2475 128.9375 85.375 C129.618125 85.58125 130.29875 85.7875 131 86 C131.33 86.66 131.66 87.32 132 88 C132.99 88.33 133.98 88.66 135 89 C135 89.66 135 90.32 135 91 C135.57234375 91.268125 136.1446875 91.53625 136.734375 91.8125 C139.07884634 93.04132636 141.12404938 94.42522176 143.25 96 C144.30960937 96.7734375 144.30960937 96.7734375 145.390625 97.5625 C145.92171875 98.036875 146.4528125 98.51125 147 99 C147 99.66 147 100.32 147 101 C147.8353125 101.0928125 147.8353125 101.0928125 148.6875 101.1875 C151.28730893 102.10094638 152.51645442 103.40596186 154.36328125 105.3984375 C157.3257224 108.29724627 160.69774938 110.71813566 163.98828125 113.23046875 C164.65214844 113.81441406 165.31601562 114.39835937 166 115 C166 115.66 166 116.32 166 117 C167.32 117.66 168.64 118.32 170 119 C170 119.66 170 120.32 170 121 C170.5775 121.0825 171.155 121.165 171.75 121.25 C174.67794601 122.225982 176.05244537 123.63511223 178 126 C178 126.99 178 127.98 178 129 C178.61875 129.2475 179.2375 129.495 179.875 129.75 C182.39525827 131.23250486 183.01231659 132.28387064 184 135 C184 135.99 184 136.98 184 138 C176.49529001 137.73549054 170.84744588 136.01668879 164.1875 132.625 C163.36830078 132.22539062 162.54910156 131.82578125 161.70507812 131.4140625 C155.84012737 128.52670213 150.3558646 125.24597179 144.875 121.6875 C140.23791997 118.720766 135.4987837 116.0707923 130.64453125 113.48046875 C127.28725434 111.60098877 124.12992589 109.49221015 120.97265625 107.296875 C119.03983519 106.02618868 117.08811581 104.99033681 115 104 C115 103.34 115 102.68 115 102 C114.28972656 101.74605469 113.57945312 101.49210937 112.84765625 101.23046875 C108.74958181 99.45969584 105.28195456 96.8969422 101.62109375 94.36328125 C99.17811467 92.81680757 99.17811467 92.81680757 96.87890625 93.0859375 C94.61005321 94.18970385 93.2293683 95.47701138 91.5 97.3125 C90.89414062 97.94285156 90.28828125 98.57320313 89.6640625 99.22265625 C88.84035156 100.10244141 88.84035156 100.10244141 88 101 C85.16526123 104.00148811 82.57214189 105.93609579 79 108 C76.65357067 109.58465453 74.31792958 111.18374948 71.98828125 112.79296875 C70 114 70 114 68 114 C68 114.66 68 115.32 68 116 C59.46267799 120.64310495 50.94668593 125.1814607 42 129 C41.19433594 129.34675781 40.38867188 129.69351563 39.55859375 130.05078125 C20.94732899 137.78804862 1.12155796 141.65940071 -19 142 C-19.825 142.01514648 -20.65 142.03029297 -21.5 142.04589844 C-52.49475365 142.51866068 -52.49475365 142.51866068 -67.09765625 138.74609375 C-69.68718836 138.08041322 -72.24221873 137.5789278 -74.875 137.125 C-89.22906087 134.29592823 -104.43161131 128.41476202 -117 121 C-118.49816083 120.16336473 -119.99788978 119.32952355 -121.5 118.5 C-122.2528125 118.08105469 -123.005625 117.66210938 -123.78125 117.23046875 C-125.21530997 116.4351714 -126.65261642 115.64568773 -128.09375 114.86328125 C-132.8903819 112.21923621 -132.8903819 112.21923621 -134 110 C-134.99 109.67 -135.98 109.34 -137 109 C-137 108.34 -137 107.68 -137 107 C-137.680625 106.79375 -138.36125 106.5875 -139.0625 106.375 C-142.91639375 104.57104973 -146.07787764 102.0989655 -149 99 C-149 98.34 -149 97.68 -149 97 C-150.32 96.34 -151.64 95.68 -153 95 C-153 94.34 -153 93.68 -153 93 C-154.32 92.34 -155.64 91.68 -157 91 C-157 90.34 -157 89.68 -157 89 C-157.99 88.67 -158.98 88.34 -160 88 C-160 87.01 -160 86.02 -160 85 C-160.56203125 84.79632813 -161.1240625 84.59265625 -161.703125 84.3828125 C-164.86090362 82.48170088 -166.67389358 79.84306926 -168.75 76.875 C-169.18538086 76.25608887 -169.62076172 75.63717773 -170.06933594 74.99951172 C-184.9635081 53.24575187 -190.47208338 31.07715971 -190 5 C-189.67 5 -189.34 5 -189 5 C-188.95512451 5.59425781 -188.91024902 6.18851563 -188.86401367 6.80078125 C-188.65060597 9.53495113 -188.41917582 12.26731982 -188.1875 15 C-188.11724609 15.93457031 -188.04699219 16.86914062 -187.97460938 17.83203125 C-187.45916787 23.72868205 -186.30073731 28.57130994 -184 34 C-183.54944872 35.25978754 -183.10800108 36.52286855 -182.67578125 37.7890625 C-179.71942762 46.17801328 -176.16160079 53.70528414 -171.5390625 61.3046875 C-170 64 -170 64 -170 66 C-169.34 66 -168.68 66 -168 66 C-166.96299107 67.64389484 -165.97034337 69.31589444 -165 71 C-154.10110285 85.57727494 -140.98110251 98.1863015 -125 107 C-125 107.66 -125 108.32 -125 109 C-123.68 109 -122.36 109 -121 109 C-121 109.66 -121 110.32 -121 111 C-119.97519531 111.26039063 -118.95039062 111.52078125 -117.89453125 111.7890625 C-114.18496728 112.85000339 -111.04568056 114.45962429 -107.6875 116.375 C-102.23241843 119.37933797 -96.87523274 121.94277019 -91 124 C-90.07445313 124.32613281 -89.14890625 124.65226562 -88.1953125 124.98828125 C-81.4706204 127.20417852 -74.68178671 128.78962168 -67.75 130.1875 C-66.92258301 130.35443359 -66.09516602 130.52136719 -65.24267578 130.69335938 C-56.9284126 132.30674804 -48.77048074 133.15595486 -40.30078125 133.1328125 C-39.5032695 133.13376923 -38.70575775 133.13472595 -37.88407898 133.13571167 C-36.20763062 133.13638718 -34.53117955 133.13457717 -32.85473633 133.13037109 C-30.33603796 133.12504973 -27.8175208 133.13031926 -25.29882812 133.13671875 C-6.71919761 133.26145028 -6.71919761 133.26145028 11.42578125 129.75 C13.92406276 129.02212435 16.37725031 128.51837912 18.9375 128.0625 C27.92178526 126.31633797 36.36113861 122.93276435 44.8125 119.5 C45.51769775 119.21552002 46.22289551 118.93104004 46.94946289 118.63793945 C52.54755808 116.32119031 57.63365927 113.50585319 62.75 110.25 C65 109 65 109 68 109 C68 108.34 68 107.68 68 107 C69.78025646 105.88297634 71.56529756 104.77318606 73.3671875 103.69140625 C76.63845848 101.58983305 79.72364136 99.29634327 82.8125 96.9375 C83.65687622 96.30231445 83.65687622 96.30231445 84.51831055 95.65429688 C87.49790851 93.36044034 89.92751965 91.14871577 92 88 C90.37615858 86.85252535 88.75088944 85.7070709 87.125 84.5625 C86.22007812 83.92441406 85.31515625 83.28632813 84.3828125 82.62890625 C82.12261419 81.00481862 82.12261419 81.00481862 80 80 C80 79.34 80 78.68 80 78 C79.29488281 77.7421875 78.58976562 77.484375 77.86328125 77.21875 C74.75730685 75.89669814 72.04021935 74.30252146 69.1875 72.5 C68.21167969 71.8915625 67.23585938 71.283125 66.23046875 70.65625 C65.49441406 70.1096875 64.75835937 69.563125 64 69 C64 68.34 64 67.68 64 67 C63.34 66.79375 62.68 66.5875 62 66.375 C58.52948354 64.78434662 55.84289379 62.70767229 52.8671875 60.33984375 C50.93516371 58.81385317 50.93516371 58.81385317 48 58 C47.443125 57.4225 46.88625 56.845 46.3125 56.25 C43.64786428 53.65738147 40.82130802 51.98885168 37.609375 50.1484375 C36.81273437 49.57996094 36.81273437 49.57996094 36 49 C36 48.34 36 47.68 36 47 C34.68 46.67 33.36 46.34 32 46 C32 45.34 32 44.68 32 44 C31.28585938 43.75894531 30.57171875 43.51789063 29.8359375 43.26953125 C26.58880407 41.81592469 24.32979808 39.99316598 21.625 37.6875 C18.43080703 34.99901823 15.26476206 32.41088193 11.8125 30.0625 C10.4203125 29.0415625 10.4203125 29.0415625 9 28 C9 27.34 9 26.68 9 26 C7.68 25.67 6.36 25.34 5 25 C5 24.34 5 23.68 5 23 C3.68 22.67 2.36 22.34 1 22 C1 21.34 1 20.68 1 20 C0.195625 19.6596875 0.195625 19.6596875 -0.625 19.3125 C-3.78500863 17.56617944 -6.2676983 15.3597151 -9 13 C-7.79618552 10.50638429 -6.54571278 8.31856917 -5 6 C-4.34 6 -3.68 6 -3 6 C-2.67 4.68 -2.34 3.36 -2 2 C-1.34 2 -0.68 2 0 2 C0 1.34 0 0.68 0 0 Z " fill="#515050" transform="translate(190,185)"/>
<path d="M0 0 C0.33 0 0.66 0 1 0 C1.04487549 0.59425781 1.08975098 1.18851563 1.13598633 1.80078125 C1.34939403 4.53495113 1.58082418 7.26731982 1.8125 10 C1.88275391 10.93457031 1.95300781 11.86914062 2.02539062 12.83203125 C2.54083213 18.72868205 3.69926269 23.57130994 6 29 C6.45055128 30.25978754 6.89199892 31.52286855 7.32421875 32.7890625 C10.28057238 41.17801328 13.83839921 48.70528414 18.4609375 56.3046875 C20 59 20 59 20 61 C20.66 61 21.32 61 22 61 C23.03700893 62.64389484 24.02965663 64.31589444 25 66 C35.89889715 80.57727494 49.01889749 93.1863015 65 102 C65 102.66 65 103.32 65 104 C66.32 104 67.64 104 69 104 C69 104.66 69 105.32 69 106 C70.02480469 106.26039063 71.04960938 106.52078125 72.10546875 106.7890625 C75.81503272 107.85000339 78.95431944 109.45962429 82.3125 111.375 C87.76758157 114.37933797 93.12476726 116.94277019 99 119 C99.92554687 119.32613281 100.85109375 119.65226562 101.8046875 119.98828125 C108.5293796 122.20417852 115.31821329 123.78962168 122.25 125.1875 C123.07741699 125.35443359 123.90483398 125.52136719 124.75732422 125.69335938 C133.0715874 127.30674804 141.22951926 128.15595486 149.69921875 128.1328125 C150.4967305 128.13376923 151.29424225 128.13472595 152.11592102 128.13571167 C153.79236938 128.13638718 155.46882045 128.13457717 157.14526367 128.13037109 C159.66396204 128.12504973 162.1824792 128.13031926 164.70117188 128.13671875 C183.28080239 128.26145028 183.28080239 128.26145028 201.42578125 124.75 C203.92406276 124.02212435 206.37725031 123.51837912 208.9375 123.0625 C217.92178526 121.31633797 226.36113861 117.93276435 234.8125 114.5 C235.51769775 114.21552002 236.22289551 113.93104004 236.94946289 113.63793945 C242.54755808 111.32119031 247.63365927 108.50585319 252.75 105.25 C255 104 255 104 258 104 C258 103.34 258 102.68 258 102 C259.77873883 100.88392858 261.5623574 99.77522016 263.36328125 98.6953125 C266.65982863 96.57575463 269.76431686 94.2562191 272.875 91.875 C273.73194458 91.22724609 273.73194458 91.22724609 274.60620117 90.56640625 C277.27160637 88.51077066 279.11454633 86.8281805 281 84 C282.98 84.33 284.96 84.66 287 85 C285.62804139 88.09709467 284.06207499 90.15870525 281.625 92.5 C281.00109375 93.10328125 280.3771875 93.7065625 279.734375 94.328125 C279.16203125 94.87984375 278.5896875 95.4315625 278 96 C277.29875 96.7425 276.5975 97.485 275.875 98.25 C273.72572564 100.2559894 271.54950786 101.52695101 269 103 C266.65357067 104.58465453 264.31792958 106.18374948 261.98828125 107.79296875 C260 109 260 109 258 109 C258 109.66 258 110.32 258 111 C249.46267799 115.64310495 240.94668593 120.1814607 232 124 C231.19433594 124.34675781 230.38867188 124.69351563 229.55859375 125.05078125 C210.94732899 132.78804862 191.12155796 136.65940071 171 137 C170.175 137.01514648 169.35 137.03029297 168.5 137.04589844 C137.50524635 137.51866068 137.50524635 137.51866068 122.90234375 133.74609375 C120.31281164 133.08041322 117.75778127 132.5789278 115.125 132.125 C100.77093913 129.29592823 85.56838869 123.41476202 73 116 C71.50183917 115.16336473 70.00211022 114.32952355 68.5 113.5 C67.7471875 113.08105469 66.994375 112.66210938 66.21875 112.23046875 C64.78469003 111.4351714 63.34738358 110.64568773 61.90625 109.86328125 C57.1096181 107.21923621 57.1096181 107.21923621 56 105 C55.01 104.67 54.02 104.34 53 104 C53 103.34 53 102.68 53 102 C52.319375 101.79375 51.63875 101.5875 50.9375 101.375 C47.08360625 99.57104973 43.92212236 97.0989655 41 94 C41 93.34 41 92.68 41 92 C39.68 91.34 38.36 90.68 37 90 C37 89.34 37 88.68 37 88 C35.68 87.34 34.36 86.68 33 86 C33 85.34 33 84.68 33 84 C32.01 83.67 31.02 83.34 30 83 C30 82.01 30 81.02 30 80 C29.43796875 79.79632813 28.8759375 79.59265625 28.296875 79.3828125 C25.13909638 77.48170088 23.32610642 74.84306926 21.25 71.875 C20.81461914 71.25608887 20.37923828 70.63717773 19.93066406 69.99951172 C5.0364919 48.24575187 -0.47208338 26.07715971 0 0 Z " fill="#843B0B" transform="translate(0,190)"/>
<path d="M0 0 C5.33279006 4.13770391 8.51887069 8.65638587 9.57421875 15.38671875 C9.94204281 22.31729835 8.39583923 27.25895899 4.16015625 32.74609375 C-1.13777441 38.62268188 -6.94769506 41.24388102 -14.71484375 42.24609375 C-21.32704874 41.95973842 -27.50116661 38.27987265 -32.27734375 33.87109375 C-37.19443968 28.36896091 -38.42652146 22.67054996 -38.1796875 15.453125 C-37.26527429 8.1693508 -33.43693772 3.66788137 -27.8359375 -0.84375 C-19.51871757 -6.71951594 -8.13102266 -5.54152499 0 0 Z " fill="#5DC34F" transform="translate(71.83984375,125.25390625)"/>
<path d="M0 0 C5.54235762 3.2349271 9.46436634 6.57522593 12.625 12.25 C13.18044478 15.08347146 13.18610586 17.80788649 13.125 20.6875 C13.14046875 21.41259766 13.1559375 22.13769531 13.171875 22.88476562 C13.12497165 29.41019353 10.87588254 33.35600816 6.875 38.5 C4.17994619 40.59615297 1.55215964 41.56732546 -1.66796875 42.63671875 C-3.38305616 43.11592828 -3.38305616 43.11592828 -4.375 44.25 C-13.06809017 45.51707403 -19.32346258 43.30494826 -26.375 38.25 C-30.85218241 34.30846244 -33.04258506 29.82939655 -33.59375 23.89453125 C-33.84775417 16.89883308 -32.71639966 11.82553963 -27.875 6.5 C-27.05 5.7575 -26.225 5.015 -25.375 4.25 C-24.92125 3.71375 -24.4675 3.1775 -24 2.625 C-17.38232428 -2.97457176 -7.71885575 -3.69162666 0 0 Z " fill="#B80000" transform="translate(265.375,106.75)"/>
<path d="M0 0 C0.73412109 -0.02449219 1.46824219 -0.04898438 2.22460938 -0.07421875 C8.81139267 -0.10928592 12.72116427 2.00193142 17.875 6.125 C22.81252005 12.25433524 24.36974845 17.55756599 24.0703125 25.47265625 C23.31554925 31.19499398 21.11922076 35.35678522 16.8125 39.1875 C11.01964189 43.24250068 6.64348472 44.85171579 -0.4375 44.6875 C-1.14003906 44.69072266 -1.84257813 44.69394531 -2.56640625 44.69726562 C-6.29521722 44.65849727 -9.14784287 44.432847 -12.3125 42.375 C-12.3125 41.715 -12.3125 41.055 -12.3125 40.375 C-13.17875 40.2821875 -13.17875 40.2821875 -14.0625 40.1875 C-18.31339019 38.65245632 -19.97172358 34.99569991 -22.0625 31.1875 C-24.47519998 25.04244645 -24.13064362 18.72026859 -21.75 12.625 C-19.51889858 8.13897757 -16.45187909 5.14366364 -12.3125 2.375 C-11.47138672 1.81232422 -11.47138672 1.81232422 -10.61328125 1.23828125 C-7.1316612 -0.06806515 -3.66889157 0.00634208 0 0 Z " fill="#00549D" transform="translate(57.3125,198.625)"/>
<path d="M0 0 C4.07288151 3.12739116 6.92513462 7.10645193 9.75 11.34375 C10.57923544 19.19093586 11.21991899 27.37908945 6.09765625 33.87109375 C5.43056641 34.60005859 5.43056641 34.60005859 4.75 35.34375 C4.151875 36.106875 3.55375 36.87 2.9375 37.65625 C-3.469918 42.59911531 -10.43921549 43.13283365 -18.25 42.34375 C-25.72018049 41.10977702 -29.94724717 36.30378323 -34.25 30.34375 C-37.21198477 24.41978045 -37.03535735 17.58101094 -35.25 11.28125 C-34.92 10.311875 -34.59 9.3425 -34.25 8.34375 C-33.59 8.34375 -32.93 8.34375 -32.25 8.34375 C-32.0025 7.76625 -31.755 7.18875 -31.5 6.59375 C-28.9127378 1.93667805 -25.73635621 -0.39779762 -20.65625 -2.11328125 C-13.5940666 -3.70685835 -6.35664127 -3.70804074 0 0 Z " fill="#4C206D" transform="translate(130.25,246.65625)"/>
<path d="M0 0 C5.54462187 2.82765653 9.88476722 7.61088561 12.125 13.4375 C12.91908877 20.49267327 13.78763772 28.30906034 9.3125 34.25 C7.73046875 35.95703125 7.73046875 35.95703125 6.125 37.4375 C5.63773438 37.9634375 5.15046875 38.489375 4.6484375 39.03125 C0.00184623 43.32041117 -6.39383434 43.94557208 -12.4296875 43.71484375 C-20.09948767 42.84494629 -25.81622237 39.22892818 -30.875 33.4375 C-34.22829561 28.03185289 -34.89356755 21.64499658 -33.875 15.4375 C-31.09617552 7.95604947 -26.66759091 4.05619372 -20.25 -0.375 C-13.63431013 -2.70274273 -6.54587435 -2.56961565 0 0 Z " fill="#E27429" transform="translate(205.875,78.5625)"/>
<path d="M0 0 C1.22203125 0.01546875 2.4440625 0.0309375 3.703125 0.046875 C6.75 0.25 6.75 0.25 8.75 1.25 C8.75 1.91 8.75 2.57 8.75 3.25 C10.07 3.25 11.39 3.25 12.75 3.25 C12.75 4.57 12.75 5.89 12.75 7.25 C14.07 7.25 15.39 7.25 16.75 7.25 C16.75 8.57 16.75 9.89 16.75 11.25 C17.74 11.25 18.73 11.25 19.75 11.25 C20.7001272 14.45479414 20.88425604 17.35069833 20.875 20.6875 C20.87886719 22.07775391 20.87886719 22.07775391 20.8828125 23.49609375 C20.75344052 26.17865981 20.34782834 28.63568718 19.75 31.25 C19.09 31.25 18.43 31.25 17.75 31.25 C17.6984375 31.85328125 17.646875 32.4565625 17.59375 33.078125 C16.75 35.25 16.75 35.25 14.34375 36.734375 C5.93761652 40.17324779 -0.3200918 42.06691267 -8.9375 38.5625 C-15.10069716 35.49703544 -19.95119172 32.01871326 -22.25 25.25 C-23.25124691 18.63064542 -22.27731145 14.17929706 -18.5390625 8.6484375 C-18.11367187 8.18695313 -17.68828125 7.72546875 -17.25 7.25 C-16.59 7.25 -15.93 7.25 -15.25 7.25 C-15.04375 6.651875 -14.8375 6.05375 -14.625 5.4375 C-11.31165429 0.16626819 -5.7381168 -0.12208759 0 0 Z " fill="#FDE200" transform="translate(119.25,80.75)"/>
<path d="M0 0 C1.00417969 0.47050781 2.00835937 0.94101563 3.04296875 1.42578125 C10.69177542 4.93387348 17.90741053 7.71769974 26.203125 9.37890625 C29.74759968 10.16601725 32.74664204 11.41115076 36 13 C36 13.66 36 14.32 36 15 C36.58265625 15.2371875 37.1653125 15.474375 37.765625 15.71875 C40.47552837 17.2726806 41.86530802 19.01929431 43.75 21.5 C44.36359375 22.2940625 44.9771875 23.088125 45.609375 23.90625 C47 26 47 26 47 28 C45.33333333 29.66666667 43.66666667 31.33333333 42 33 C41.15040261 34.26001828 40.31705956 35.53114311 39.5 36.8125 C37.34283623 39.91638141 37.34283623 39.91638141 34.4375 40.625 C31.66274516 39.9135244 30.21307321 38.78473646 28 37 C25.85266073 36.29485154 25.85266073 36.29485154 24 36 C24 35.34 24 34.68 24 34 C23.4225 33.7525 22.845 33.505 22.25 33.25 C16.92455468 30.29141927 14.06139373 25.61400846 12 20 C12 18.68 12 17.36 12 16 C11.34 16 10.68 16 10 16 C8.88671875 14.4609375 8.88671875 14.4609375 7.6875 12.375 C6.02448668 9.58351335 4.32223093 7.07508891 2.1875 4.625 C0 2 0 2 0 0 Z " fill="#FAEB00" transform="translate(120,139)"/>
<path d="M0 0 C5.53352312 3.22977064 9.49889482 6.56321824 12.625 12.25 C13.10881059 15.21027667 13.05223392 18.07176904 12.9375 21.0625 C12.92299805 22.22555664 12.92299805 22.22555664 12.90820312 23.41210938 C12.79413365 29.08086635 12.79413365 29.08086635 11.625 30.25 C11.191875 31.178125 10.75875 32.10625 10.3125 33.0625 C7.31651943 38.72157441 4.24685254 40.67242745 -1.66796875 42.63671875 C-3.38305616 43.11592828 -3.38305616 43.11592828 -4.375 44.25 C-13.06809017 45.51707403 -19.32346258 43.30494826 -26.375 38.25 C-30.85218241 34.30846244 -33.04258506 29.82939655 -33.59375 23.89453125 C-33.84775417 16.89883308 -32.71639966 11.82553963 -27.875 6.5 C-27.05 5.7575 -26.225 5.015 -25.375 4.25 C-24.92125 3.71375 -24.4675 3.1775 -24 2.625 C-17.38232428 -2.97457176 -7.71885575 -3.69162666 0 0 Z M-30.375 12.25 C-31.40287056 15.20279179 -31.53826561 18.01330373 -31.5625 21.125 C-31.57667969 21.94742188 -31.59085938 22.76984375 -31.60546875 23.6171875 C-31.42237135 26.88220089 -31.42237135 26.88220089 -29.375 32.25 C-16.835 32.25 -4.295 32.25 8.625 32.25 C11.81933296 23.73177877 12.05844801 21.10955957 8.625 13.25 C6.09406037 9.03916769 4.04833402 6.64537056 -0.75 5.3125 C-1.61625 5.291875 -2.4825 5.27125 -3.375 5.25 C-3.375 4.59 -3.375 3.93 -3.375 3.25 C-14.38839346 2.57913339 -22.43628234 4.31128234 -30.375 12.25 Z " fill="#8B0503" transform="translate(265.375,106.75)"/>
<path d="M0 0 C2.95693633 1.41659865 5.3930479 3.08556471 8.01953125 5.046875 C8.97085938 5.75328125 9.9221875 6.4596875 10.90234375 7.1875 C12.29066406 8.23164063 12.29066406 8.23164063 13.70703125 9.296875 C14.52945313 9.91046875 15.351875 10.5240625 16.19921875 11.15625 C18.03914375 12.53128292 19.87515043 13.91115426 21.70703125 15.296875 C21.33203125 17.734375 21.33203125 17.734375 20.70703125 20.296875 C19.71703125 20.791875 19.71703125 20.791875 18.70703125 21.296875 C18.37703125 22.286875 18.04703125 23.276875 17.70703125 24.296875 C15.33922555 27.05931498 13.58985302 28.97389143 10.14453125 30.234375 C7.30533061 30.30717502 6.05673003 29.86334085 3.70703125 28.296875 C3.08248047 27.62591797 3.08248047 27.62591797 2.4453125 26.94140625 C-0.62574237 24.03598131 -4.38552452 22.0931935 -7.9921875 19.91796875 C-8.75144531 19.38300781 -9.51070312 18.84804687 -10.29296875 18.296875 C-10.29296875 17.636875 -10.29296875 16.976875 -10.29296875 16.296875 C-10.95296875 16.296875 -11.61296875 16.296875 -12.29296875 16.296875 C-12.83429126 11.51228253 -11.27201869 9.3048767 -8.41796875 5.546875 C-7.69867188 4.58265625 -6.979375 3.6184375 -6.23828125 2.625 C-3.21989802 -0.98736226 -3.21989802 -0.98736226 0 0 Z " fill="#C6C5C4" transform="translate(169.29296875,166.703125)"/>
<path d="M0 0 C0.73412109 -0.02449219 1.46824219 -0.04898438 2.22460938 -0.07421875 C8.81139267 -0.10928592 12.72116427 2.00193142 17.875 6.125 C22.8973788 12.35967714 24.13157549 17.54539869 24.12109375 25.54296875 C23.62646107 28.77367772 22.58389768 30.73548466 20.6875 33.375 C20.3575 33.375 20.0275 33.375 19.6875 33.375 C19.67332031 32.21742188 19.65914062 31.05984375 19.64453125 29.8671875 C19.59760743 28.32808628 19.54936018 26.78902501 19.5 25.25 C19.49419922 24.48945313 19.48839844 23.72890625 19.48242188 22.9453125 C19.25365775 17.04828163 17.73446086 14.62204984 13.6875 10.375 C13.6875 9.715 13.6875 9.055 13.6875 8.375 C13.0275 8.375 12.3675 8.375 11.6875 8.375 C11.6875 7.715 11.6875 7.055 11.6875 6.375 C7.59746141 5.22517398 3.65572949 5.26405744 -0.5625 5.3125 C-1.68011719 5.31926758 -1.68011719 5.31926758 -2.8203125 5.32617188 C-4.6510764 5.33790754 -6.48179873 5.3558415 -8.3125 5.375 C-8.3125 6.035 -8.3125 6.695 -8.3125 7.375 C-11.27437272 9.54704 -13.81935991 11.21061997 -17.3125 12.375 C-18.04573796 14.39008358 -18.04573796 14.39008358 -18.3125 16.375 C-18.9725 16.375 -19.6325 16.375 -20.3125 16.375 C-19.9825 22.315 -19.6525 28.255 -19.3125 34.375 C-23.59713164 28.66215781 -24.01637478 24.31319422 -23.3125 17.375 C-21.52887713 10.64880773 -18.0598972 6.21920208 -12.3125 2.375 C-11.47138672 1.81232422 -11.47138672 1.81232422 -10.61328125 1.23828125 C-7.1316612 -0.06806515 -3.66889157 0.00634208 0 0 Z " fill="#07416D" transform="translate(57.3125,198.625)"/>
<path d="M0 0 C12.54 0 25.08 0 38 0 C36.91483 4.34067999 36.40221872 5.2956723 33 8 C25.5566264 11.65639405 17.67609624 12.44112652 9.6875 9.875 C5.52466696 8.08111937 2.91899401 5.42981796 0 2 C0 1.34 0 0.68 0 0 Z " fill="#180B1E" transform="translate(98,278)"/>
<path d="M0 0 C4.32408849 2.2917669 7.50778296 4.8782587 10.15625 9.0546875 C10.73375 9.9003125 11.31125 10.7459375 11.90625 11.6171875 C14.1930057 17.90576568 14.3154192 25.08729665 11.65625 31.3046875 C11.16125 32.2121875 10.66625 33.1196875 10.15625 34.0546875 C8.89042781 30.18745119 9.0443735 26.32317488 9.09375 22.3046875 C9.09826172 21.60730469 9.10277344 20.90992187 9.10742188 20.19140625 C9.1191498 18.47912947 9.13708347 16.76689717 9.15625 15.0546875 C8.16625 15.0546875 7.17625 15.0546875 6.15625 15.0546875 C6.15625 13.7346875 6.15625 12.4146875 6.15625 11.0546875 C4.83625 11.0546875 3.51625 11.0546875 2.15625 11.0546875 C2.15625 9.7346875 2.15625 8.4146875 2.15625 7.0546875 C0.83625 7.0546875 -0.48375 7.0546875 -1.84375 7.0546875 C-1.84375 6.3946875 -1.84375 5.7346875 -1.84375 5.0546875 C-14.1477838 4.05001131 -14.1477838 4.05001131 -24.84375 9.0546875 C-30.08686498 14.35448481 -31.99414362 18.69143217 -32.84375 26.0546875 C-33.17375 26.0546875 -33.50375 26.0546875 -33.84375 26.0546875 C-34.2127705 15.49660094 -34.2127705 15.49660094 -31.84375 11.0546875 C-31.18375 11.0546875 -30.52375 11.0546875 -29.84375 11.0546875 C-29.74707031 10.45914063 -29.65039062 9.86359375 -29.55078125 9.25 C-28.6965342 6.5975865 -27.67099152 5.67996857 -25.53125 3.9296875 C-24.93699219 3.43210937 -24.34273437 2.93453125 -23.73046875 2.421875 C-17.05312904 -2.41677696 -7.73366475 -2.57080614 0 0 Z " fill="#A09D01" transform="translate(129.84375,76.9453125)"/>
<path d="M0 0 C4.49691241 3.48914769 7.32764836 7.33741896 9.16015625 12.74609375 C9.41015625 15.74609375 9.41015625 15.74609375 9.16015625 17.74609375 C6.69736824 15.28330574 6.1624437 13.03932393 5.16015625 9.74609375 C4.50015625 9.74609375 3.84015625 9.74609375 3.16015625 9.74609375 C2.50015625 8.75609375 1.84015625 7.76609375 1.16015625 6.74609375 C-0.48536337 6.02881597 -2.15406664 5.36284147 -3.83984375 4.74609375 C-4.82984375 4.08609375 -5.81984375 3.42609375 -6.83984375 2.74609375 C-9.52644029 2.5765652 -12.09508406 2.51296892 -14.77734375 2.55859375 C-15.85145508 2.55956055 -15.85145508 2.55956055 -16.94726562 2.56054688 C-20.37492298 2.58913716 -23.56426703 2.67704129 -26.83984375 3.74609375 C-26.92234375 4.34421875 -27.00484375 4.94234375 -27.08984375 5.55859375 C-28.04923738 8.35682518 -29.48033896 9.05019968 -31.83984375 10.74609375 C-32.16984375 11.73609375 -32.49984375 12.72609375 -32.83984375 13.74609375 C-33.49984375 13.74609375 -34.15984375 13.74609375 -34.83984375 13.74609375 C-34.50984375 18.03609375 -34.17984375 22.32609375 -33.83984375 26.74609375 C-34.49984375 27.07609375 -35.15984375 27.40609375 -35.83984375 27.74609375 C-38.65961722 22.91864157 -38.42952724 18.18932601 -37.83984375 12.74609375 C-36.00060007 6.04100287 -31.39699146 1.67198479 -25.83984375 -2.25390625 C-17.58761116 -6.47171402 -7.4630017 -5.08624957 0 0 Z " fill="#55752E" transform="translate(71.83984375,125.25390625)"/>
<path d="M0 0 C5.67360704 2.89343662 9.64553191 7.60066602 12.125 13.4375 C11.75 15.6875 11.75 15.6875 11.125 17.4375 C8.76546906 15.07796906 8.63358587 13.65854383 8.125 10.4375 C7.135 10.1075 6.145 9.7775 5.125 9.4375 C5.125 8.7775 5.125 8.1175 5.125 7.4375 C-0.09518725 5.91747492 -5.41596974 6.13279228 -10.8125 6.0625 C-11.89724609 6.02511719 -12.98199219 5.98773438 -14.09960938 5.94921875 C-20.50797776 5.77962489 -20.50797776 5.77962489 -25.94140625 8.8359375 C-26.57949219 9.69445312 -27.21757812 10.55296875 -27.875 11.4375 C-28.865 12.0975 -29.855 12.7575 -30.875 13.4375 C-30.80174773 10.36090454 -30.51865806 8.17895141 -28.4609375 5.80859375 C-20.05079552 -1.58269843 -10.80679777 -4.24226241 0 0 Z " fill="#874110" transform="translate(205.875,78.5625)"/>
<path d="M0 0 C1.65322266 -0.01836914 1.65322266 -0.01836914 3.33984375 -0.03710938 C4.93119141 -0.04000977 4.93119141 -0.04000977 6.5546875 -0.04296875 C7.52647949 -0.04707764 8.49827148 -0.05118652 9.49951172 -0.05541992 C12.18967753 0.1934842 13.82364654 0.81437497 16.125 2.1875 C16.125 2.8475 16.125 3.5075 16.125 4.1875 C16.74375 4.22875 17.3625 4.27 18 4.3125 C20.125 5.1875 20.125 5.1875 21.3125 7.9375 C21.99834275 10.68087098 22.63363699 13.40310963 23.125 16.1875 C22.465 15.1975 21.805 14.2075 21.125 13.1875 C20.135 12.8575 19.145 12.5275 18.125 12.1875 C17.774375 11.23875 17.42375 10.29 17.0625 9.3125 C14.45755349 5.11097337 11.95476214 4.84244312 7.3046875 3.73046875 C5.125 3.1875 5.125 3.1875 4.125 2.1875 C0.66678598 1.93746036 0.66678598 1.93746036 -2.875 2.1875 C-3.535 2.8475 -4.195 3.5075 -4.875 4.1875 C-6.5385479 4.86191131 -8.20566942 5.5275321 -9.875 6.1875 C-14.40024112 8.17419123 -16.092792 10.63161246 -18.09375 14.98046875 C-19.29899914 18.38529757 -19.61811334 21.59108678 -19.875 25.1875 C-22.34756383 21.47865425 -23.04672617 19.70888003 -23.125 15.3125 C-23.15078125 14.44882813 -23.1765625 13.58515625 -23.203125 12.6953125 C-22.81190173 9.70524897 -21.94573811 8.34870725 -19.875 6.1875 C-19.215 6.1875 -18.555 6.1875 -17.875 6.1875 C-16.52113064 4.53747172 -15.18821858 2.8700613 -13.875 1.1875 C-9.78491341 -0.8575433 -4.49509227 0.00261039 0 0 Z " fill="#B25617" transform="translate(194.875,83.8125)"/>
<path d="M0 0 C11.55 0 23.1 0 35 0 C32.98960798 4.02078405 31.76293804 5.36524675 27.7578125 7.2421875 C24.09259309 8.24934411 20.52479848 8.36648478 16.75 8.375 C16.05245605 8.37661133 15.35491211 8.37822266 14.63623047 8.37988281 C10.95299762 8.30002472 8.1302552 8.01691701 5 6 C5 5.34 5 4.68 5 4 C4.360625 3.896875 3.72125 3.79375 3.0625 3.6875 C2.381875 3.460625 1.70125 3.23375 1 3 C0.67 2.01 0.34 1.02 0 0 Z " fill="#003377" transform="translate(40,235)"/>
<path d="M0 0 C0.66 0 1.32 0 2 0 C0.23062627 4.77730906 -3.49689277 7.69672929 -7.890625 9.984375 C-13.58616594 12.36125429 -18.81110468 13.22397305 -24.65625 10.98046875 C-31.5236676 7.7144986 -31.5236676 7.7144986 -34 4 C-32.56164795 3.97812622 -32.56164795 3.97812622 -31.09423828 3.95581055 C-27.5417726 3.89790493 -23.98994602 3.82067329 -20.43798828 3.73754883 C-18.89968221 3.7042627 -17.36125293 3.67624222 -15.82275391 3.65356445 C-13.61307182 3.62008442 -11.40452265 3.5677769 -9.1953125 3.51171875 C-8.16085495 3.50213387 -8.16085495 3.50213387 -7.10549927 3.49235535 C-4.95314611 3.45974286 -4.95314611 3.45974286 -2 3 C-1.34 2.01 -0.68 1.02 0 0 Z " fill="#20B44F" transform="translate(75,155)"/>
<path d="M0 0 C2.86333881 2.1557701 4.69237199 4.27488611 6.69140625 7.2734375 C6.69140625 8.5934375 6.69140625 9.9134375 6.69140625 11.2734375 C6.03140625 11.2734375 5.37140625 11.2734375 4.69140625 11.2734375 C4.69140625 10.2834375 4.69140625 9.2934375 4.69140625 8.2734375 C3.70140625 7.9434375 2.71140625 7.6134375 1.69140625 7.2734375 C1.69140625 6.6134375 1.69140625 5.9534375 1.69140625 5.2734375 C-5.90570314 2.0504214 -14.3156333 0.60911735 -22.30859375 3.2734375 C-22.30859375 3.9334375 -22.30859375 4.5934375 -22.30859375 5.2734375 C-23.62859375 5.6034375 -24.94859375 5.9334375 -26.30859375 6.2734375 C-26.30859375 6.9334375 -26.30859375 7.5934375 -26.30859375 8.2734375 C-28.05859375 9.5625 -28.05859375 9.5625 -30.30859375 10.8984375 C-31.05109375 11.34445312 -31.79359375 11.79046875 -32.55859375 12.25 C-33.13609375 12.58773438 -33.71359375 12.92546875 -34.30859375 13.2734375 C-34.30859375 11.6234375 -34.30859375 9.9734375 -34.30859375 8.2734375 C-33.64859375 8.2734375 -32.98859375 8.2734375 -32.30859375 8.2734375 C-32.06109375 7.6959375 -31.81359375 7.1184375 -31.55859375 6.5234375 C-28.97133155 1.86636555 -25.79494996 -0.46811012 -20.71484375 -2.18359375 C-13.59774897 -3.78956157 -6.38762859 -3.76056631 0 0 Z " fill="#401D57" transform="translate(130.30859375,246.7265625)"/>
<path d="M0 0 C10.89 0 21.78 0 33 0 C31 4 31 4 29.08984375 5.01171875 C28.02443359 5.34623047 28.02443359 5.34623047 26.9375 5.6875 C24.22514385 6.43871605 24.22514385 6.43871605 22 8 C13.17881633 9.28574448 7.31808728 6.75604899 0 2 C0 1.34 0 0.68 0 0 Z " fill="#760100" transform="translate(239,143)"/>
<path d="M0 0 C1.32 0.33 2.64 0.66 4 1 C4 1.66 4 2.32 4 3 C4.87398437 3.35578125 4.87398437 3.35578125 5.765625 3.71875 C8.47552837 5.2726806 9.86530802 7.01929431 11.75 9.5 C12.36359375 10.2940625 12.9771875 11.088125 13.609375 11.90625 C15 14 15 14 15 16 C13.33333333 17.66666667 11.66666667 19.33333333 10 21 C9.15040261 22.26001828 8.31705956 23.53114311 7.5 24.8125 C5.34283623 27.91638141 5.34283623 27.91638141 2.4375 28.625 C-0.33725484 27.9135244 -1.78692679 26.78473646 -4 25 C-6.14733927 24.29485154 -6.14733927 24.29485154 -8 24 C-8 23.34 -8 22.68 -8 22 C-8.5775 21.7525 -9.155 21.505 -9.75 21.25 C-12.3002997 19.83316683 -14.01785701 18.12372463 -16 16 C-15.67 15.34 -15.34 14.68 -15 14 C-12.0625 14.75 -12.0625 14.75 -9 16 C-8.125 18.125 -8.125 18.125 -8 20 C-6.68 20 -5.36 20 -4 20 C-4 20.66 -4 21.32 -4 22 C-0.37 22 3.26 22 7 22 C7 21.34 7 20.68 7 20 C7.66 20 8.32 20 9 20 C8.81535634 15.65815798 8.81535634 15.65815798 7 12 C6.95919217 10.00041636 6.95745644 7.99954746 7 6 C6.401875 5.71125 5.80375 5.4225 5.1875 5.125 C3 4 3 4 0 2 C0 1.34 0 0.68 0 0 Z " fill="#DED903" transform="translate(152,151)"/>
<path d="M0 0 C0.66 0.33 1.32 0.66 2 1 C1.01049805 3.45581055 1.01049805 3.45581055 -1 6 C-3.90759494 6.52598044 -6.25430175 6.72187431 -9.16796875 6.70703125 C-9.96278152 6.72215256 -10.7575943 6.73727386 -11.57649231 6.75285339 C-14.11378134 6.79582342 -16.64988296 6.8045767 -19.1875 6.8125 C-20.9082349 6.83563729 -22.62894141 6.86100103 -24.34960938 6.88867188 C-28.56651162 6.95161536 -32.78266928 6.98387798 -37 7 C-37.66 5.35 -38.32 3.7 -39 2 C-37.28115601 1.96241577 -37.28115601 1.96241577 -35.52758789 1.92407227 C-31.29146402 1.83016894 -27.05551072 1.72990725 -22.81958008 1.62768555 C-20.98335753 1.5842718 -19.14709292 1.54260161 -17.31079102 1.50268555 C-14.67711689 1.44513831 -12.04365579 1.38140002 -9.41015625 1.31640625 C-8.58411392 1.29969376 -7.75807159 1.28298126 -6.90699768 1.26576233 C-3.14523247 1.52192567 -3.14523247 1.52192567 0 0 Z " fill="#860100" transform="translate(275,137)"/>
<path d="M0 0 C12.54 0 25.08 0 38 0 C37.67 1.32 37.34 2.64 37 4 C32.21342691 4.21710487 27.42661144 4.41395012 22.63842773 4.59204102 C21.00962046 4.65547997 19.38101906 4.72445596 17.75268555 4.79907227 C15.4122672 4.90535765 13.0718313 4.99172142 10.73046875 5.07421875 C10.00224411 5.11157639 9.27401947 5.14893402 8.52372742 5.18742371 C3.48492347 5.33735105 3.48492347 5.33735105 1.0168457 3.62036133 C0 2 0 2 0 0 Z " fill="#29123A" transform="translate(98,278)"/>
<path d="M0 0 C1.38815381 4.42715131 0.15975717 7.82803772 -1.1875 12.125 C-1.42017578 12.88619141 -1.65285156 13.64738281 -1.89257812 14.43164062 C-4.70954367 23.49995437 -8.11789089 31.83723795 -13 40 C-13.36351562 40.62519531 -13.72703125 41.25039062 -14.1015625 41.89453125 C-15.125 43.5625 -15.125 43.5625 -17 46 C-17.99 46 -18.98 46 -20 46 C-20 42.85720353 -19.866819 40.87163466 -17.59375 38.5859375 C-16.80484375 37.80089844 -16.80484375 37.80089844 -16 37 C-15.12090316 35.56878747 -14.2893667 34.10759258 -13.5 32.625 C-12.2571965 30.30669347 -11.04134909 28.06134578 -9.5703125 25.87890625 C-7.21884286 21.56787857 -5.86813216 16.97853799 -4.375 12.3125 C-3.75901668 10.41236963 -3.14188584 8.51261075 -2.5234375 6.61328125 C-2.25450684 5.77579346 -1.98557617 4.93830566 -1.70849609 4.07543945 C-1 2 -1 2 0 0 Z " fill="#853E0C" transform="translate(320,211)"/>
<path d="M0 0 C1.29808594 -0.01675781 2.59617187 -0.03351563 3.93359375 -0.05078125 C7.68275097 0.32453804 9.59153479 1.05136078 12.5625 3.3125 C12.5625 3.6425 12.5625 3.9725 12.5625 4.3125 C11.99329834 4.29155273 11.42409668 4.27060547 10.83764648 4.24902344 C8.22528184 4.16519006 5.61320116 4.11363182 3 4.0625 C2.10474609 4.02898437 1.20949219 3.99546875 0.28710938 3.9609375 C-5.84504179 3.87108913 -9.44767295 4.67127486 -14.4375 8.3125 C-15.18026031 10.28330157 -15.18026031 10.28330157 -15.4375 12.3125 C-16.74950404 13.66682675 -18.08381404 14.99983482 -19.4375 16.3125 C-21.68755321 19.74679174 -21.97257228 23.28312641 -22.4375 27.3125 C-22.7675 27.3125 -23.0975 27.3125 -23.4375 27.3125 C-23.8065205 16.75441344 -23.8065205 16.75441344 -21.4375 12.3125 C-20.7775 12.3125 -20.1175 12.3125 -19.4375 12.3125 C-19.34082031 11.71695313 -19.24414062 11.12140625 -19.14453125 10.5078125 C-18.2902842 7.855399 -17.26474152 6.93778107 -15.125 5.1875 C-14.53074219 4.68992187 -13.93648437 4.19234375 -13.32421875 3.6796875 C-8.82572473 0.41990922 -5.61568075 0.01669677 0 0 Z " fill="#8B8801" transform="translate(119.4375,75.6875)"/>
<path d="M0 0 C0.53882813 0.32355469 1.07765625 0.64710937 1.6328125 0.98046875 C1.6328125 1.64046875 1.6328125 2.30046875 1.6328125 2.98046875 C0.66859375 2.96886719 -0.295625 2.95726563 -1.2890625 2.9453125 C-2.55234375 2.93628906 -3.815625 2.92726563 -5.1171875 2.91796875 C-6.99664062 2.90056641 -6.99664062 2.90056641 -8.9140625 2.8828125 C-11.65255251 2.96025848 -13.78599043 3.1526606 -16.3671875 3.98046875 C-16.3671875 4.64046875 -16.3671875 5.30046875 -16.3671875 5.98046875 C-17.4190625 6.37234375 -18.4709375 6.76421875 -19.5546875 7.16796875 C-23.28377682 8.74449432 -25.66382237 10.949423 -28.3671875 13.98046875 C-28.29393523 10.90387329 -28.01084556 8.72192016 -25.953125 6.3515625 C-18.69864509 -0.02407073 -9.59101864 -4.13078526 0 0 Z " fill="#75390F" transform="translate(203.3671875,78.01953125)"/>
<path d="M0 0 C1.06734375 -0.03673828 1.06734375 -0.03673828 2.15625 -0.07421875 C5.7977342 -0.09460019 7.62846568 0.07428941 10.5 2.3984375 C10.995 3.05070313 11.49 3.70296875 12 4.375 C11.0821875 4.36339844 10.164375 4.35179687 9.21875 4.33984375 C5.47807331 4.31233877 1.74054497 4.33868403 -2 4.375 C-3.22009766 4.34599609 -3.22009766 4.34599609 -4.46484375 4.31640625 C-7.56825098 4.40858666 -9.60418973 5.03820716 -11.96484375 7.046875 C-15.12363914 10.48343767 -17.71685481 13.81270599 -19 18.375 C-19.33 18.375 -19.66 18.375 -20 18.375 C-20 16.395 -20 14.415 -20 12.375 C-19.34 12.375 -18.68 12.375 -18 12.375 C-17.9175 11.776875 -17.835 11.17875 -17.75 10.5625 C-16.79060637 7.76426857 -15.35950479 7.07089407 -13 5.375 C-12.67 4.385 -12.34 3.395 -12 2.375 C-8.43089181 -0.2839856 -4.2672779 0.00773058 0 0 Z " fill="#72AB42" transform="translate(57,126.625)"/>
<path d="M0 0 C8.58 0 17.16 0 26 0 C21.5910237 4.4089763 17.97725329 4.18220479 12.0625 4.1875 C10.98838867 4.20586914 10.98838867 4.20586914 9.89257812 4.22460938 C6.10026892 4.23515333 3.21400906 4.12309215 0 2 C0 1.34 0 0.68 0 0 Z " fill="#042968" transform="translate(45,239)"/>
<path d="M0 0 C4.58151466 1.52717155 7.79607006 3.59214011 10 8 C10.14851844 9.93359586 10.22130833 11.87342097 10.25 13.8125 C10.28867188 15.36904297 10.28867188 15.36904297 10.328125 16.95703125 C9.95961897 20.37448595 9.01564596 22.24630186 7 25 C6.67 25 6.34 25 6 25 C5.98582031 23.84242188 5.97164063 22.68484375 5.95703125 21.4921875 C5.91010743 19.95308628 5.86186018 18.41402501 5.8125 16.875 C5.80669922 16.11445313 5.80089844 15.35390625 5.79492188 14.5703125 C5.56615775 8.67328163 4.04696086 6.24704984 0 2 C0 1.34 0 0.68 0 0 Z " fill="#034981" transform="translate(71,207)"/>
<path d="M0 0 C-2.26395586 2.26395586 -4.04297898 2.83094518 -7 4 C-11.52524112 5.98669123 -13.217792 8.44411246 -15.21875 12.79296875 C-16.42399914 16.19779757 -16.74311334 19.40358678 -17 23 C-19.58155616 19.12766576 -20.12134154 17.46463981 -20.0625 12.875 C-20.05347656 11.96492188 -20.04445312 11.05484375 -20.03515625 10.1171875 C-20.02355469 9.41851562 -20.01195312 8.71984375 -20 8 C-19.01 9.485 -19.01 9.485 -18 11 C-17.54625 10.175 -17.0925 9.35 -16.625 8.5 C-16.08875 7.675 -15.5525 6.85 -15 6 C-14.34 6 -13.68 6 -13 6 C-12.7628125 5.37738281 -12.525625 4.75476563 -12.28125 4.11328125 C-10.65431228 1.42982604 -9.46213773 1.08672038 -6.5 0.1875 C-5.30890625 -0.19341797 -5.30890625 -0.19341797 -4.09375 -0.58203125 C-2 -1 -2 -1 0 0 Z " fill="#CC6824" transform="translate(192,86)"/>
<path d="M0 0 C-0.804375 0.763125 -1.60875 1.52625 -2.4375 2.3125 C-5.16799024 4.79430898 -5.16799024 4.79430898 -6 8 C-6.66 8 -7.32 8 -8 8 C-7.67 12.29 -7.34 16.58 -7 21 C-7.66 21.33 -8.32 21.66 -9 22 C-10.93773248 18.7396882 -11.27072187 16.27138064 -11.25 12.5 C-11.25515625 11.5615625 -11.2603125 10.623125 -11.265625 9.65625 C-10.89437913 5.94379132 -9.85746536 3.82789759 -7.1875 1.25 C-4.59327876 -0.23241214 -2.94124258 -0.24510355 0 0 Z " fill="#5A923C" transform="translate(45,131)"/>
<path d="M0 0 C-0.33 0.99 -0.66 1.98 -1 3 C-12.22 3.33 -23.44 3.66 -35 4 C-35.33 3.01 -35.66 2.02 -36 1 C-31.19450973 0.85721003 -26.38900832 0.71480303 -21.58349609 0.57275391 C-19.94807629 0.52435717 -18.3126596 0.47585503 -16.67724609 0.42724609 C-14.32910964 0.35747127 -11.98096232 0.28807318 -9.6328125 0.21875 C-8.89942657 0.19687622 -8.16604065 0.17500244 -7.41043091 0.15246582 C-2.22774341 0 -2.22774341 0 0 0 Z " fill="#220E30" transform="translate(136,279)"/>
<path d="M0 0 C1.65 0 3.3 0 5 0 C7.99220229 4.99495124 7.50767366 10.35672903 7 16 C6.24530933 18.61306191 5.31029462 20.59779319 4 23 C2.73417781 19.13276369 2.8881235 15.26848738 2.9375 11.25 C2.94201172 10.55261719 2.94652344 9.85523437 2.95117188 9.13671875 C2.9628998 7.42444197 2.98083347 5.71220967 3 4 C2.01 4 1.02 4 0 4 C0 2.68 0 1.36 0 0 Z " fill="#BBB104" transform="translate(136,88)"/>
<path d="M0 0 C2.475 0.495 2.475 0.495 5 1 C5.33 1.99 5.66 2.98 6 4 C6.66 4 7.32 4 8 4 C12.83601286 12.50620119 12.83601286 12.50620119 12 18 C10.5 21.375 10.5 21.375 9 24 C7.93276039 20.53777385 7.89826514 17.35960734 7.9375 13.75 C7.94652344 12.67234375 7.95554687 11.5946875 7.96484375 10.484375 C7.97644531 9.66453125 7.98804687 8.8446875 8 8 C7.01 8 6.02 8 5 8 C3.95107762 6.36368108 2.95093297 4.69514137 2 3 C1.34 2.67 0.68 2.34 0 2 C0 1.34 0 0.68 0 0 Z " fill="#54A242" transform="translate(69,131)"/>
<path d="M0 0 C1.22203125 0.01546875 2.4440625 0.0309375 3.703125 0.046875 C6.75 0.25 6.75 0.25 8.75 1.25 C8.75 1.91 8.75 2.57 8.75 3.25 C7.10451172 3.30607422 7.10451172 3.30607422 5.42578125 3.36328125 C3.97132143 3.42896653 2.51689584 3.49541299 1.0625 3.5625 C0.34126953 3.58505859 -0.37996094 3.60761719 -1.12304688 3.63085938 C-5.69612805 3.86055752 -8.37082789 4.64291676 -12.25 7.25 C-13.24 7.25 -14.23 7.25 -15.25 7.25 C-14.22044305 4.26428483 -13.34889652 3.31089326 -10.6171875 1.62890625 C-6.81250643 0.0708408 -4.09316604 -0.08708864 0 0 Z " fill="#CFCC00" transform="translate(119.25,80.75)"/>
<path d="M0 0 C6.93 0 13.86 0 21 0 C19.70122766 2.59754469 18.68140714 2.94675431 16 4 C10.98456598 4.57554161 6.44591518 4.65207939 1.8125 2.5625 C1.214375 2.046875 0.61625 1.53125 0 1 C0 0.67 0 0.34 0 0 Z " fill="#6B0704" transform="translate(245,147)"/>
<path d="M0 0 C0.33 0.99 0.66 1.98 1 3 C2.32407669 3.68486725 3.65909241 4.34870203 5 5 C6.37086915 6.29470975 7.71340837 7.62150897 9 9 C5.62537285 8.45276317 3.91765 7.9451 1 6 C-1.75417318 5.69933846 -4.42645147 5.49074701 -7.1875 5.375 C-7.93708984 5.33632812 -8.68667969 5.29765625 -9.45898438 5.2578125 C-11.30559199 5.16371784 -13.1527619 5.08077681 -15 5 C-14.67 4.34 -14.34 3.68 -14 3 C-11.09375 2.40234375 -11.09375 2.40234375 -7.5 1.9375 C-3.42628676 1.73570599 -3.42628676 1.73570599 0 0 Z " fill="#5B8634" transform="translate(64,122)"/>
<path d="M0 0 C1.32 0 2.64 0 4 0 C4 0.66 4 1.32 4 2 C4.66 2 5.32 2 6 2 C6 2.66 6 3.32 6 4 C6.66 4 7.32 4 8 4 C11.05761406 6.91605785 11.95042109 8.52156348 12.390625 12.76953125 C12.36431837 14.11774585 12.31701804 15.46569518 12.25 16.8125 C12.23195313 17.50537109 12.21390625 18.19824219 12.1953125 18.91210938 C12.14851064 20.60867664 12.07677624 22.30452476 12 24 C10.68 24.33 9.36 24.66 8 25 C8.99 21.535 8.99 21.535 10 18 C9.67 18 9.34 18 9 18 C8.91363281 17.34773438 8.82726562 16.69546875 8.73828125 16.0234375 C7.7415212 9.82340711 6.44639442 6.44639442 2 2 C1.34 1.34 0.68 0.68 0 0 Z " fill="#980000" transform="translate(266,112)"/>
<path d="M0 0 C5.61 0 11.22 0 17 0 C17 0.99 17 1.98 17 3 C12.04693056 4.65102315 6.89899773 4.63299924 2 3 C1.34 2.67 0.68 2.34 0 2 C0 1.34 0 0.68 0 0 Z " fill="#15AE4F" transform="translate(48,163)"/>
<path d="M0 0 C5.28 2.31 10.56 4.62 16 7 C16 7.33 16 7.66 16 8 C13.69 8 11.38 8 9 8 C8.67 9.32 8.34 10.64 8 12 C6.66081194 10.37982158 5.3288031 8.75370657 4 7.125 C3.2575 6.22007812 2.515 5.31515625 1.75 4.3828125 C0 2 0 2 0 0 Z " fill="#E6C007" transform="translate(120,139)"/>
<path d="M0 0 C1.46373047 0.01353516 1.46373047 0.01353516 2.95703125 0.02734375 C4.06111328 0.04474609 4.06111328 0.04474609 5.1875 0.0625 C5.1875 0.3925 5.1875 0.7225 5.1875 1.0625 C-0.7525 1.5575 -0.7525 1.5575 -6.8125 2.0625 C-6.8125 2.7225 -6.8125 3.3825 -6.8125 4.0625 C-9.77437272 6.23454 -12.31935991 7.89811997 -15.8125 9.0625 C-16.54573796 11.07758358 -16.54573796 11.07758358 -16.8125 13.0625 C-17.4725 13.0625 -18.1325 13.0625 -18.8125 13.0625 C-17.36997609 8.30217109 -14.61721715 4.25743178 -10.8125 1.0625 C-7.20474776 -0.01741246 -3.74756324 -0.04515136 0 0 Z " fill="#00477C" transform="translate(55.8125,201.9375)"/>
<path d="M0 0 C0.66 0 1.32 0 2 0 C1.37240135 2.92879371 0.41377341 5.36095629 -1 8 C-1.66 8 -2.32 8 -3 8 C-2.50130596 13.36891879 -1.97772468 18.69235173 -1 24 C-4.57784124 19.33325056 -5.39351001 16.55872232 -5.359375 10.6875 C-4.79511476 6.46781474 -2.87507116 3.1190166 0 0 Z " fill="#D7C004" transform="translate(102,88)"/>
<path d="M0 0 C1.32 0.33 2.64 0.66 4 1 C4 1.66 4 2.32 4 3 C4.58265625 3.2371875 5.1653125 3.474375 5.765625 3.71875 C8.47552837 5.2726806 9.86530802 7.01929431 11.75 9.5 C12.36359375 10.2940625 12.9771875 11.088125 13.609375 11.90625 C15 14 15 14 15 16 C13.02 16.99 13.02 16.99 11 18 C10.67 15.36 10.34 12.72 10 10 C9.34 10 8.68 10 8 10 C7.87625 9.071875 7.87625 9.071875 7.75 8.125 C7.20076457 5.84957521 7.20076457 5.84957521 5.125 4.875 C4.42375 4.58625 3.7225 4.2975 3 4 C2.01 3.34 1.02 2.68 0 2 C0 1.34 0 0.68 0 0 Z " fill="#CDC505" transform="translate(152,151)"/>
<path d="M0 0 C0 0.66 0 1.32 0 2 C-0.99 2.33 -1.98 2.66 -3 3 C-3.495 3.680625 -3.99 4.36125 -4.5 5.0625 C-4.995 5.701875 -5.49 6.34125 -6 7 C-6.99 7 -7.98 7 -9 7 C-9.66 11.62 -10.32 16.24 -11 21 C-11.33 21 -11.66 21 -12 21 C-12.39852399 9.59778598 -12.39852399 9.59778598 -10 6 C-3.20863309 0 -3.20863309 0 0 0 Z " fill="#A30000" transform="translate(246,112)"/>
<path d="M0 0 C5.28 0 10.56 0 16 0 C15.67 0.99 15.34 1.98 15 3 C13.25008666 3.02715383 11.50005055 3.04646551 9.75 3.0625 C8.28820312 3.07990234 8.28820312 3.07990234 6.796875 3.09765625 C4.34241322 3.01195577 2.33831086 2.70706066 0 2 C0 1.34 0 0.68 0 0 Z " fill="#0B050B" transform="translate(108,286)"/>
<path d="M0 0 C1.41623216 -0.05447047 2.83308191 -0.09300508 4.25 -0.125 C5.03890625 -0.14820312 5.8278125 -0.17140625 6.640625 -0.1953125 C9.20731941 0.0171622 10.7916067 0.71345895 13 2 C13 2.66 13 3.32 13 4 C6.07 3.505 6.07 3.505 -1 3 C-0.67 2.01 -0.34 1.02 0 0 Z " fill="#6B310A" transform="translate(192,77)"/>
<path d="M0 0 C-1.32 0.33 -2.64 0.66 -4 1 C-4 1.66 -4 2.32 -4 3 C-5.67721041 4.56958193 -7.46794114 5.9480525 -9.2734375 7.3671875 C-11.12057039 9.11402358 -12.00522667 10.67886222 -13 13 C-13.33 13 -13.66 13 -14 13 C-14.125 10.125 -14.125 10.125 -14 7 C-13.34 6.34 -12.68 5.68 -12 5 C-11.34 5 -10.68 5 -10 5 C-8.64613064 3.34997172 -7.31321858 1.6825613 -6 0 C-3.50907189 -1.24546405 -2.58919267 -0.7767578 0 0 Z " fill="#9C4D17" transform="translate(187,85)"/>
<path d="M0 0 C0.66 0 1.32 0 2 0 C2 0.66 2 1.32 2 2 C2.91523438 2.02578125 3.83046875 2.0515625 4.7734375 2.078125 C6.55621094 2.16320312 6.55621094 2.16320312 8.375 2.25 C10.15003906 2.31960937 10.15003906 2.31960937 11.9609375 2.390625 C15 3 15 3 16.4140625 5.046875 C16.60742188 5.69140625 16.80078125 6.3359375 17 7 C13.04095497 6.23204965 9.11559159 5.35008694 5.1875 4.4375 C4.02605469 4.16808594 2.86460937 3.89867187 1.66796875 3.62109375 C0.34732422 3.31365234 0.34732422 3.31365234 -1 3 C-0.67 2.01 -0.34 1.02 0 0 Z " fill="#D4A76E" transform="translate(137,144)"/>
<path d="M0 0 C-2.26395586 2.26395586 -4.04297898 2.83094518 -7 4 C-8.68496298 4.96885372 -10.35178756 5.96986723 -12 7 C-14.5 8.5 -14.5 8.5 -17 10 C-16.34 8.68 -15.68 7.36 -15 6 C-14.34 6 -13.68 6 -13 6 C-12.7628125 5.37738281 -12.525625 4.75476563 -12.28125 4.11328125 C-10.65431228 1.42982604 -9.46213773 1.08672038 -6.5 0.1875 C-5.30890625 -0.19341797 -5.30890625 -0.19341797 -4.09375 -0.58203125 C-2 -1 -2 -1 0 0 Z " fill="#C5611C" transform="translate(192,86)"/>
<path d="M0 0 C0 0.66 0 1.32 0 2 C-5.61 2 -11.22 2 -17 2 C-12.71669739 -2.28330261 -5.45112668 -1.81704223 0 0 Z " fill="#7EBE49" transform="translate(64,129)"/>
<path d="M0 0 C0 0.66 0 1.32 0 2 C-1.33333333 3.33333333 -2.66666667 4.66666667 -4 6 C-6.25005321 9.43429174 -6.53507228 12.97062641 -7 17 C-7.33 17 -7.66 17 -8 17 C-8.38393977 6.01505646 -8.38393977 6.01505646 -6 2 C-3 0 -3 0 0 0 Z " fill="#AC9F07" transform="translate(104,86)"/>
<path d="M0 0 C-1.98 0.99 -1.98 0.99 -4 2 C-4 2.66 -4 3.32 -4 4 C-5.423125 4.4640625 -5.423125 4.4640625 -6.875 4.9375 C-9.86080408 5.87394742 -9.86080408 5.87394742 -12 7 C-11.62120265 4.80297535 -11.09789619 3.16124078 -9.9375 1.25 C-6.76923229 -0.79404368 -3.70837308 -0.182379 0 0 Z " fill="#587E32" transform="translate(49,127)"/>
<path d="M0 0 C0.99 0 1.98 0 3 0 C3.3152595 5.98993047 2.68219822 9.63560356 0 15 C-1.09651823 11.58860997 -0.94215473 8.79344419 -0.5625 5.25 C-0.46066406 4.26515625 -0.35882813 3.2803125 -0.25390625 2.265625 C-0.17011719 1.51796875 -0.08632812 0.7703125 0 0 Z " fill="#D7C101" transform="translate(140,96)"/>
<path d="M0 0 C3.63 0 7.26 0 11 0 C10.34 1.32 9.68 2.64 9 4 C6.75 4.25 6.75 4.25 4 4 C1.6875 2 1.6875 2 0 0 Z " fill="#B6B304" transform="translate(148,175)"/>
<path d="M0 0 C5.66442374 0.36504064 10.00703705 1.0554321 15 4 C14.67 4.66 14.34 5.32 14 6 C11.85144546 5.3844197 9.70620375 4.75726569 7.5625 4.125 C6.36753906 3.77695313 5.17257813 3.42890625 3.94140625 3.0703125 C1 2 1 2 0 0 Z " fill="#E9D405" transform="translate(137,147)"/>
<path d="M0 0 C3.37462715 0.54723683 5.08235 1.0549 8 3 C9.65549531 3.38499891 11.3222433 3.72793135 13 4 C13 4.99 13 5.98 13 7 C12.46375 6.855625 11.9275 6.71125 11.375 6.5625 C8.60084173 5.90546252 5.81474612 5.44780052 3 5 C3 4.01 3 3.02 3 2 C2.01 1.67 1.02 1.34 0 1 C0 0.67 0 0.34 0 0 Z " fill="#D1A76C" transform="translate(144,175)"/>
<path d="M0 0 C0.66 0.33 1.32 0.66 2 1 C1.27683594 1.77923828 1.27683594 1.77923828 0.5390625 2.57421875 C-4.1876792 7.69507421 -4.1876792 7.69507421 -7 14 C-7.33 14 -7.66 14 -8 14 C-8 12.02 -8 10.04 -8 8 C-7.34 8 -6.68 8 -6 8 C-5.9071875 7.13375 -5.9071875 7.13375 -5.8125 6.25 C-4.67972699 3.11309013 -2.65802405 1.90832496 0 0 Z " fill="#6EB848" transform="translate(45,131)"/>
<path d="M0 0 C1.32 0.66 2.64 1.32 4 2 C1.42215154 4.64752004 -0.91648098 6.94432065 -4 9 C-3.38461538 3.46153846 -3.38461538 3.46153846 -1.4375 1.125 C-0.963125 0.75375 -0.48875 0.3825 0 0 Z " fill="#824013" transform="translate(179,83)"/>
<path d="M0 0 C0.33 0 0.66 0 1 0 C1.08160748 1.89510699 1.13946459 3.79124504 1.1875 5.6875 C1.22230469 6.74324219 1.25710937 7.79898438 1.29296875 8.88671875 C0.96555119 12.36607599 0.05643142 14.2080188 -2 17 C-2.33 17 -2.66 17 -3 17 C-3.20086443 13.28400809 -3.1519437 12.22791555 -1 9 C-0.54605448 6.72087062 -0.54605448 6.72087062 -0.375 4.3125 C-0.30023438 3.50425781 -0.22546875 2.69601563 -0.1484375 1.86328125 C-0.09945312 1.24839844 -0.05046875 0.63351563 0 0 Z " fill="#14497A" transform="translate(80,215)"/>
<path d="M0 0 C0.99 0.495 0.99 0.495 2 1 C3.28317892 4.84953676 3.06643637 7.94738135 3 12 C2.01 12.495 2.01 12.495 1 13 C0.67 8.71 0.34 4.42 0 0 Z " fill="#C86625" transform="translate(215,96)"/>
<path d="M0 0 C0.66 0.33 1.32 0.66 2 1 C1.54109375 1.38671875 1.0821875 1.7734375 0.609375 2.171875 C-2.725081 5.00195951 -5.96501303 7.84361355 -9 11 C-8.690625 10.236875 -8.38125 9.47375 -8.0625 8.6875 C-7.32106407 6.81210323 -6.63771783 4.91315348 -6 3 C-3.0625 1.25 -3.0625 1.25 0 0 Z " fill="#F0E800" transform="translate(110,85)"/>
<path d="M0 0 C2.24973447 -0.054138 4.49984383 -0.09285491 6.75 -0.125 C8.00296875 -0.14820312 9.2559375 -0.17140625 10.546875 -0.1953125 C13.72820492 -0.01537302 15.36521896 0.31001418 18 2 C18 2.66 18 3.32 18 4 C16.68 4 15.36 4 14 4 C14 3.34 14 2.68 14 2 C7.07 1.505 7.07 1.505 0 1 C0 0.67 0 0.34 0 0 Z " fill="#B1B000" transform="translate(114,80)"/>
<path d="M0 0 C-1.4566677 1.14795006 -2.91538937 2.29329419 -4.375 3.4375 C-5.18710938 4.07558594 -5.99921875 4.71367187 -6.8359375 5.37109375 C-9 7 -9 7 -11 8 C-10.6875 6.0625 -10.6875 6.0625 -10 4 C-9.01 3.67 -8.02 3.34 -7 3 C-7 2.34 -7 1.68 -7 1 C-3.375 -1.125 -3.375 -1.125 0 0 Z " fill="#57257D" transform="translate(111,252)"/>
<path d="M0 0 C2.3125 0.0625 2.3125 0.0625 5 1 C6.8125 4.5625 6.8125 4.5625 8 8 C7.01 8 6.02 8 5 8 C3.95107762 6.36368108 2.95093297 4.69514137 2 3 C1.34 2.67 0.68 2.34 0 2 C0 1.34 0 0.68 0 0 Z " fill="#6DAD43" transform="translate(69,131)"/>
<path d="M0 0 C2.79872437 2.52788007 4.45773019 4.20411134 5 8 C3.02 8.99 3.02 8.99 1 10 C0.67 6.7 0.34 3.4 0 0 Z " fill="#B4B107" transform="translate(162,159)"/>
<path d="M0 0 C1.50433594 0.01353516 1.50433594 0.01353516 3.0390625 0.02734375 C3.80992187 0.03894531 4.58078125 0.05054687 5.375 0.0625 C5.375 0.3925 5.375 0.7225 5.375 1.0625 C2.075 1.3925 -1.225 1.7225 -4.625 2.0625 C-4.295 2.7225 -3.965 3.3825 -3.625 4.0625 C-4.945 4.3925 -6.265 4.7225 -7.625 5.0625 C-7.625 3.7425 -7.625 2.4225 -7.625 1.0625 C-4.98041621 -0.25979189 -2.94738699 -0.03427194 0 0 Z " fill="#96190E" transform="translate(255.625,104.9375)"/>
<path d="M0 0 C0.33 0 0.66 0 1 0 C2.28571429 8.42857143 2.28571429 8.42857143 1 13 C-1.11295256 9.83057116 -1.25250929 9.00370047 -1.1875 5.375 C-1.17783203 4.18003906 -1.17783203 4.18003906 -1.16796875 2.9609375 C-1 1 -1 1 0 0 Z " fill="#492554" transform="translate(95,261)"/>
<path d="M0 0 C4.12989477 4.26311718 4.61271765 7.28758534 5 13 C2.94876752 10.94876752 2.35852882 9.72994937 1.375 7.0625 C0.98441406 6.02802734 0.98441406 6.02802734 0.5859375 4.97265625 C0 3 0 3 0 0 Z " fill="#5E8236" transform="translate(76,130)"/>
<path d="M0 0 C1.8125 0.1875 1.8125 0.1875 4 1 C5.8125 3.3125 5.8125 3.3125 7 6 C6.6875 8.3125 6.6875 8.3125 6 10 C5.67 9.01 5.34 8.02 5 7 C4.01 6.67 3.02 6.34 2 6 C0.8125 2.9375 0.8125 2.9375 0 0 Z " fill="#B55A1C" transform="translate(211,90)"/>
<path d="M0 0 C1.65 0.33 3.3 0.66 5 1 C4.67 2.65 4.34 4.3 4 6 C3.34 4.68 2.68 3.36 2 2 C1.01 2.99 0.02 3.98 -1 5 C-0.67 3.35 -0.34 1.7 0 0 Z " fill="#D7A872" transform="translate(172,290)"/>
<path d="M0 0 C2.31 0.66 4.62 1.32 7 2 C7.33 3.32 7.66 4.64 8 6 C2.33846154 4.52307692 2.33846154 4.52307692 0.625 1.875 C0.41875 1.25625 0.2125 0.6375 0 0 Z " fill="#E2D507" transform="translate(136,165)"/>
<path d="M0 0 C4.31392226 0.4793247 6.16569547 1.7457985 9 5 C8.67 5.99 8.34 6.98 8 8 C5.95880212 6.38405168 3.95927063 4.7143618 2 3 C2 2.34 2 1.68 2 1 C1.34 0.67 0.68 0.34 0 0 Z " fill="#C99F69" transform="translate(154,151)"/>
<path d="M0 0 C3.96 1.98 3.96 1.98 8 4 C7.01 4.495 7.01 4.495 6 5 C5.67 5.99 5.34 6.98 5 8 C0 2.25 0 2.25 0 0 Z " fill="#D2A607" transform="translate(120,139)"/>
<path d="M0 0 C0.99 0 1.98 0 3 0 C1.66666667 2.66666667 0.33333333 5.33333333 -1 8 C-1.66 8 -2.32 8 -3 8 C-1.125 1.125 -1.125 1.125 0 0 Z " fill="#15466A" transform="translate(38,207)"/>
<path d="M0 0 C1.32 0.33 2.64 0.66 4 1 C2.7934375 1.8971875 2.7934375 1.8971875 1.5625 2.8125 C-1.22327984 4.80947276 -1.22327984 4.80947276 -2 8 C-2.66 8 -3.32 8 -4 8 C-2.87548273 5.0280615 -1.77706209 2.66559313 0 0 Z " fill="#66A13F" transform="translate(41,131)"/>
<path d="M0 0 C3 3 3 3 3.07421875 5.04296875 C2.71614583 7.02864583 2.35807292 9.01432292 2 11 C1.34 10.67 0.68 10.34 0 10 C0 6.7 0 3.4 0 0 Z " fill="#B16026" transform="translate(172,94)"/>
<path d="M0 0 C1.2065625 0.0309375 1.2065625 0.0309375 2.4375 0.0625 C0.4575 1.0525 0.4575 1.0525 -1.5625 2.0625 C-1.5625 2.7225 -1.5625 3.3825 -1.5625 4.0625 C-3.5425 5.0525 -3.5425 5.0525 -5.5625 6.0625 C-3.26136364 0.07954545 -3.26136364 0.07954545 0 0 Z " fill="#491F69" transform="translate(105.5625,250.9375)"/>
<path d="M0 0 C0.66 0 1.32 0 2 0 C1.40072174 3.35595828 0.15377564 5.37801226 -2 8 C-2.125 5.125 -2.125 5.125 -2 2 C-1.34 1.34 -0.68 0.68 0 0 Z " fill="#D5CD00" transform="translate(102,88)"/>
<path d="M0 0 C1.98 0 3.96 0 6 0 C1.375 4 1.375 4 -2 4 C-1.34 2.68 -0.68 1.36 0 0 Z " fill="#D2CE00" transform="translate(106,84)"/>
<path d="M0 0 C2.79872437 2.52788007 4.45773019 4.20411134 5 8 C2 7 2 7 0.8125 5.125 C0 3 0 3 0 0 Z " fill="#D2A269" transform="translate(125,147)"/>
<path d="M0 0 C2.375 0.3125 2.375 0.3125 5 1 C5.66 1.99 6.32 2.98 7 4 C2.25 3.125 2.25 3.125 0 2 C0 1.34 0 0.68 0 0 Z " fill="#4F702C" transform="translate(65,123)"/>
</svg>
